<svg xmlns="http://www.w3.org/2000/svg" version="1.1" viewBox="-5.0 -10.0 110.0 135.0">
 <path d="m88.441 43.051-23.34 19.801 23.34 24.777zm-53.543 19.801-23.34-19.801v44.578zm4.5781 1.2305 5.8984-6.2617h0.003906c1.2148-1.2383 2.8867-1.9258 4.6211-1.8984 1.7383-0.027344 3.4102 0.66406 4.6211 1.9062l31.07 33h-71.383l25.113-26.68 0.058594-0.070313zm-26.777-25.551 32.512-27.531c2.7578-2.3594 6.8203-2.3594 9.5781 0l32.512 27.531-25.07 21.27-4.5586-4.8008c-2-2.0977-4.7734-3.2773-7.6719-3.2617-2.8945-0.011719-5.668 1.168-7.6719 3.2617l-4.5586 4.8008z" fill-rule="evenodd"/>
<text x="0.0" y="117.5" font-size="5.0" font-weight="bold" font-family="Arbeit Regular, Helvetica, Arial-Unicode, Arial, Sans-serif" fill="#000000">Created by Uut Eva Ariani</text><text x="0.0" y="122.5" font-size="5.0" font-weight="bold" font-family="Arbeit Regular, Helvetica, Arial-Unicode, Arial, Sans-serif" fill="#000000">from Noun Project</text></svg>