<svg xmlns="http://www.w3.org/2000/svg" version="1.1" viewBox="-5.0 -10.0 110.0 135.0">
 <g>
  <path d="m29.051 18.52c-11.062 0-20.051 9-20.051 20.051 0 10.719 8.4492 19.5 19.039 20.02-0.16016 3.6406-1.8594 17-18.27 20.91-0.48828 0.12109-0.82031 0.58984-0.76172 1.0898 0.058594 0.5 0.48828 0.87891 0.98828 0.87891 0.39062 0 39.102-0.48828 39.102-42.91 0.003906-11.039-8.9961-20.039-20.047-20.039zm-0.42188 55.809c-3.5781 1.9805-7.1914 3.1992-10.262 3.9492 12.219-7.1211 11.68-20.551 11.68-20.711-0.03125-0.53125-0.46875-0.94922-1-0.94922-9.9453 0.003906-18.047-8.0977-18.047-18.047 0-9.9492 8.1016-18.051 18.051-18.051s18.051 8.1016 18.051 18.051c0 16.961-6.2227 28.98-18.473 35.758z"/>
  <path d="m70.949 18.52c-11.051 0-20.051 8.9883-20.051 20.051 0 10.719 8.4609 19.5 19.051 20.02-0.10938 3.6719-1.6797 16.961-18.281 20.91-0.48828 0.12109-0.82031 0.58984-0.76172 1.0898s0.48828 0.87891 0.98828 0.87891c0.39062 0 39.102-0.48828 39.102-42.91 0.003906-11.039-8.9844-20.039-20.047-20.039zm-0.41016 55.809c-3.5781 1.9805-7.1914 3.1992-10.262 3.9492 12.219-7.1211 11.68-20.551 11.68-20.711-0.03125-0.53125-0.46875-0.94922-1-0.94922-9.9492 0-18.051-8.1016-18.051-18.051 0.003906-9.9453 8.0938-18.047 18.043-18.047s18.051 8.1016 18.051 18.051c0 16.961-6.2109 28.98-18.461 35.758z"/>
 </g>
<text x="0.0" y="117.5" font-size="5.0" font-weight="bold" font-family="Arbeit Regular, Helvetica, Arial-Unicode, Arial, Sans-serif" fill="#000000">Created by Rahmat Hidayat</text><text x="0.0" y="122.5" font-size="5.0" font-weight="bold" font-family="Arbeit Regular, Helvetica, Arial-Unicode, Arial, Sans-serif" fill="#000000">from Noun Project</text></svg>