<svg xmlns="http://www.w3.org/2000/svg" xmlns:xlink="http://www.w3.org/1999/xlink" version="1.1" x="0px" y="0px" viewBox="0 0 100 125" style="enable-background:new 0 0 100 100;" xml:space="preserve"><g><path d="M84.4,21.6h-5v-4.9c0-2-1.7-3.7-3.7-3.7S72,14.7,72,16.7v4.9h-9.7v-4.9c0-2-1.7-3.7-3.7-3.7s-3.7,1.7-3.7,3.7v4.9h-9.7   v-4.9c0-2-1.7-3.7-3.7-3.7s-3.7,1.7-3.7,3.7v4.9H28v-4.9c0-2-1.7-3.7-3.7-3.7s-3.7,1.7-3.7,3.7v4.9h-5c-3.1,0-5.6,2.5-5.6,5.6v54.2   c0,3.1,2.5,5.6,5.6,5.6h68.8c3.1,0,5.6-2.5,5.6-5.6V27.2C90,24.1,87.5,21.6,84.4,21.6z M75.7,15c0.9,0,1.7,0.8,1.7,1.7v11.8   c0,0.9-0.8,1.7-1.7,1.7S74,29.5,74,28.5v-5.9c0,0,0,0,0,0s0,0,0,0v-5.9C74,15.8,74.8,15,75.7,15z M56.9,16.7c0-0.9,0.8-1.7,1.7-1.7   s1.7,0.8,1.7,1.7v11.8c0,0.9-0.8,1.7-1.7,1.7s-1.7-0.8-1.7-1.7V16.7z M39.7,16.7c0-0.9,0.8-1.7,1.7-1.7c0.9,0,1.7,0.8,1.7,1.7v5.9   c0,0,0,0,0,0s0,0,0,0v5.9c0,0.9-0.8,1.7-1.7,1.7c-0.9,0-1.7-0.8-1.7-1.7V16.7z M22.6,16.7c0-0.9,0.8-1.7,1.7-1.7   c0.9,0,1.7,0.8,1.7,1.7v5.9c0,0,0,0,0,0s0,0,0,0v5.9c0,0.9-0.8,1.7-1.7,1.7c-0.9,0-1.7-0.8-1.7-1.7V16.7z M15.6,23.6h5v4.9   c0,2,1.7,3.7,3.7,3.7s3.7-1.7,3.7-3.7v-4.9h9.7v4.9c0,2,1.7,3.7,3.7,3.7s3.7-1.7,3.7-3.7v-4.9h9.7v4.9c0,2,1.7,3.7,3.7,3.7   s3.7-1.7,3.7-3.7v-4.9H72v4.9c0,2,1.7,3.7,3.7,3.7s3.7-1.7,3.7-3.7v-4.9h5c2,0,3.6,1.6,3.6,3.6V36H12v-8.7   C12,25.2,13.6,23.6,15.6,23.6z M84.4,85H15.6c-2,0-3.6-1.6-3.6-3.6V38h76v43.4C88,83.4,86.4,85,84.4,85z"/><path d="M28.2,44.2h-7.8c-0.6,0-1,0.4-1,1V53c0,0.6,0.4,1,1,1h7.8c0.6,0,1-0.4,1-1v-7.8C29.2,44.6,28.8,44.2,28.2,44.2z M27.2,52   h-5.8v-5.8h5.8V52z"/><path d="M45.3,44.2h-7.8c-0.6,0-1,0.4-1,1V53c0,0.6,0.4,1,1,1h7.8c0.6,0,1-0.4,1-1v-7.8C46.3,44.6,45.9,44.2,45.3,44.2z M44.3,52   h-5.8v-5.8h5.8V52z"/><path d="M62.5,44.2h-7.8c-0.6,0-1,0.4-1,1V53c0,0.6,0.4,1,1,1h7.8c0.6,0,1-0.4,1-1v-7.8C63.5,44.6,63,44.2,62.5,44.2z M61.5,52   h-5.8v-5.8h5.8V52z"/><path d="M79.6,44.2h-7.8c-0.6,0-1,0.4-1,1V53c0,0.6,0.4,1,1,1h7.8c0.6,0,1-0.4,1-1v-7.8C80.6,44.6,80.2,44.2,79.6,44.2z M78.6,52   h-5.8v-5.8h5.8V52z"/><path d="M28.2,56.6h-7.8c-0.6,0-1,0.4-1,1v7.8c0,0.6,0.4,1,1,1h7.8c0.6,0,1-0.4,1-1v-7.8C29.2,57,28.8,56.6,28.2,56.6z M27.2,64.4   h-5.8v-5.8h5.8V64.4z"/><path d="M45.3,56.6h-7.8c-0.6,0-1,0.4-1,1v7.8c0,0.6,0.4,1,1,1h7.8c0.6,0,1-0.4,1-1v-7.8C46.3,57,45.9,56.6,45.3,56.6z M44.3,64.4   h-5.8v-5.8h5.8V64.4z"/><path d="M62.5,56.6h-7.8c-0.6,0-1,0.4-1,1v7.8c0,0.6,0.4,1,1,1h7.8c0.6,0,1-0.4,1-1v-7.8C63.5,57,63,56.6,62.5,56.6z M61.5,64.4   h-5.8v-5.8h5.8V64.4z"/><path d="M79.6,56.6h-7.8c-0.6,0-1,0.4-1,1v7.8c0,0.6,0.4,1,1,1h7.8c0.6,0,1-0.4,1-1v-7.8C80.6,57,80.2,56.6,79.6,56.6z M78.6,64.4   h-5.8v-5.8h5.8V64.4z"/><path d="M28.2,69h-7.8c-0.6,0-1,0.4-1,1v7.8c0,0.6,0.4,1,1,1h7.8c0.6,0,1-0.4,1-1V70C29.2,69.4,28.8,69,28.2,69z M27.2,76.8h-5.8   V71h5.8V76.8z"/><path d="M45.3,69h-7.8c-0.6,0-1,0.4-1,1v7.8c0,0.6,0.4,1,1,1h7.8c0.6,0,1-0.4,1-1V70C46.3,69.4,45.9,69,45.3,69z M44.3,76.8h-5.8   V71h5.8V76.8z"/><path d="M62.5,69h-7.8c-0.6,0-1,0.4-1,1v7.8c0,0.6,0.4,1,1,1h7.8c0.6,0,1-0.4,1-1V70C63.5,69.4,63,69,62.5,69z M61.5,76.8h-5.8V71   h5.8V76.8z"/><path d="M79.6,69h-7.8c-0.6,0-1,0.4-1,1v7.8c0,0.6,0.4,1,1,1h7.8c0.6,0,1-0.4,1-1V70C80.6,69.4,80.2,69,79.6,69z M78.6,76.8h-5.8   V71h5.8V76.8z"/></g><text x="0" y="115" fill="#000000" font-size="5px" font-weight="bold" font-family="'Helvetica Neue', Helvetica, Arial-Unicode, Arial, Sans-serif">Created by PARDILA</text><text x="0" y="120" fill="#000000" font-size="5px" font-weight="bold" font-family="'Helvetica Neue', Helvetica, Arial-Unicode, Arial, Sans-serif">from the Noun Project</text></svg>